<svg xmlns="http://www.w3.org/2000/svg" version="1.1" xmlns:xlink="http://www.w3.org/1999/xlink" xmlns:svgjs="http://svgjs.dev/svgjs" width="1000" height="180" viewBox="0 0 1000 180"><g transform="matrix(1,0,0,1,0.021420850228821564,0.06866666666667243)"><svg viewBox="0 0 300 54" data-background-color="000000" preserveAspectRatio="xMidYMid meet" height="180" width="1000" xmlns="http://www.w3.org/2000/svg" xmlns:xlink="http://www.w3.org/1999/xlink"><g id="tight-bounds" transform="matrix(1,0,0,1,-0.006426255068646469,-0.020600000000001728)"><svg viewBox="0 0 300.0128525101373 54.041199999999996" height="54.041199999999996" width="300.0128525101373"><g><svg viewBox="0 0 300.0128525101373 54.041199999999996" height="54.041199999999996" width="300.0128525101373"><g><svg viewBox="0 0 300.0128525101373 54.041199999999996" height="54.041199999999996" width="300.0128525101373"><g id="textblocktransform"><svg viewBox="0 0 300.0128525101373 54.041199999999996" height="54.041199999999996" width="300.0128525101373" id="textblock"><g><svg viewBox="0 0 300.0128525101373 54.041199999999996" height="54.041199999999996" width="300.0128525101373"><g><svg><g></g><g></g></svg></g><g><svg><g><svg></svg></g><g></g></svg></g><g id="text-0"><svg viewBox="0 0 300.0128525101373 54.041199999999996" height="54.041199999999996" width="300.0128525101373"><g transform="matrix(1,0,0,1,0,0)"><svg width="233.9628" viewBox="1.75 -32.9 144.59 33.4" height="54.041199999999996" data-palette-color="#ffffff"><path d="M1.75-23.75L4.25-23.75 4.4-22.25Q6.9-24.05 8.25-24.05L8.25-24.05Q11.55-24.05 12.8-21.9L12.8-21.9Q15.6-24.05 17.7-24.05L17.7-24.05Q20.95-24.05 22.15-22.05 23.35-20.05 23.35-15.9L23.35-15.9 23.35 0 20.7 0 20.7-15.9Q20.7-18.75 20.1-20.13 19.5-21.5 17.8-21.5 16.1-21.5 13.6-19.9L13.6-19.9Q13.9-18.2 13.9-15.9L13.9-15.9 13.9-7.6 11.25-7.6 11.25-15.9Q11.25-18.75 10.65-20.1L10.65-20.1Q10-21.5 8.3-21.5 6.6-21.5 4.4-19.9L4.4-19.9 4.4 0 1.75 0 1.75-23.75ZM27.95-11.8Q27.95-24.05 37.5-24.05 47.05-24.05 47.05-11.8 47.05 0.45 37.5 0.45 27.95 0.45 27.95-11.8ZM37.5-21.45Q30.8-21.45 30.8-11.8 30.8-2.15 37.5-2.15 44.2-2.15 44.2-11.8 44.2-21.45 37.5-21.45ZM58-9.1L58-20.9 53.8-20.9 53.8-23.4 58-23.4 58-29.15 60.65-29.65 60.65-23.4 70.15-23.4 70.15-20.9 60.65-20.9 60.65-9.2Q60.65-5.3 61.42-3.7 62.2-2.1 64.59-2.1 67-2.1 69.9-3.05L69.9-3.05 70.5-0.55Q67.59 0.5 65.09 0.5 62.6 0.5 61.17-0.15 59.75-0.8 59.07-2.23 58.4-3.65 58.2-5.15 58-6.65 58-9.1L58-9.1ZM86.94-21.25L81.14-21.25 81.14-23.75 89.59-23.75 89.59-2.5 95.39-2.5 95.39 0 80.74 0 80.74-2.5 86.94-2.5 86.94-21.25ZM88.04-28.55Q87.14-28.55 86.52-29.18 85.89-29.8 85.89-30.78 85.89-31.75 86.52-32.33 87.14-32.9 88.04-32.9 88.94-32.9 89.52-32.35 90.09-31.8 90.09-30.8 90.09-29.8 89.52-29.18 88.94-28.55 88.04-28.55ZM102.94-11.8Q102.94-24.05 112.49-24.05 122.04-24.05 122.04-11.8 122.04 0.45 112.49 0.45 102.94 0.45 102.94-11.8ZM112.49-21.45Q105.79-21.45 105.79-11.8 105.79-2.15 112.49-2.15 119.19-2.15 119.19-11.8 119.19-21.45 112.49-21.45ZM128.79-23.75L131.34-23.75 131.44-21.75Q136.29-24.05 139.49-24.05 142.69-24.05 144.51-21.85 146.34-19.65 146.34-15.85L146.34-15.85 146.34 0 143.69 0 143.69-15.85Q143.69-18.3 142.49-19.9L142.49-19.9Q141.29-21.45 138.89-21.45 136.49-21.45 131.44-19.25L131.44-19.25 131.44 0 128.79 0 128.79-23.75Z" opacity="1" transform="matrix(1,0,0,1,0,0)" fill="#ffffff" class="wordmark-text-0" data-fill-palette-color="primary"></path></svg></g><g><svg xmlns="http://www.w3.org/2000/svg" xmlns:xlink="http://www.w3.org/1999/xlink" version="1.1" x="246.7216" y="0" viewBox="5.611392405413278 5.03 88.77569349357734 90.02500000000003" enable-background="new 0 0 100 100" xml:space="preserve" height="54.041199999999996" width="53.29125251013729" class="icon-cg-0" data-fill-palette-color="accent" id="cg-0"><g fill="#ffffff" data-fill-palette-color="accent"><path d="M50.489 5.03c-5.545 0-10.058 4.511-10.058 10.057s4.512 10.059 10.058 10.059c5.547 0 10.058-4.513 10.058-10.059S56.036 5.03 50.489 5.03z" fill="#ffffff" data-fill-palette-color="accent"></path><path d="M65.216 59.285c0.839 3.503 9.153 5.193 16.49 6.686 2.944 0.6 5.488 1.117 7.024 1.665 0.615 0.22 1.217 0.331 1.793 0.331 2.335 0 3.73-1.803 3.855-3.499 0.104-1.421-0.668-3.213-3.186-3.587-4.896-0.725-12.808-3.803-16.849-6.111-3.688-2.109-4.627-11.376-4.827-14.167-0.033-0.471-0.035-0.954-0.037-1.463-0.011-2.25-0.024-4.801-2.894-7.191-1.487-1.24-3.103-1.679-4.665-2.103-2.076-0.565-4.223-1.147-6.295-3.634-0.097-0.117-0.257-0.163-0.399-0.117-1.506 0.483-3.062 0.729-4.628 0.729-2.354 0-4.023-0.562-4.376-0.692-0.022-0.014-0.044-0.026-0.068-0.038-0.151-0.062-0.325-0.019-0.428 0.107-2.072 2.486-4.219 3.069-6.295 3.633-1.562 0.424-3.177 0.864-4.665 2.103-2.87 2.39-2.883 4.941-2.894 7.192-0.002 0.51-0.004 0.992-0.039 1.463-0.175 2.439-2.068 12.23-5.808 14.367-4.041 2.308-11.953 5.386-16.848 6.111-2.627 0.389-3.685 2.447-3.555 4.195 0.112 1.536 1.206 3.188 3.337 3.188 0.536 0 1.11-0.107 1.705-0.32 1.519-0.542 4.125-1.085 7.143-1.712 7.353-1.529 16.503-3.433 17.347-6.948 0.896-3.727 3.281-9.283 4.155-11.256 0.87 1.929 2.955 7.515 0.76 12.781l-0.46 1.11c-1.72 4.155-2.133 5.034-3.539 5.034-0.596 0-1.37-0.156-2.48-0.396-1.437-0.311-4.317-0.51-7.341-0.51-4.071 0-13.897 0.375-17.204 3.861-0.78 0.823-1.149 1.77-1.093 2.815 0.407 7.73 6.43 9.31 8.022 9.31 0.725 0 2.091 0.944 3.411 1.856 1.593 1.103 3.098 2.143 4.194 2.143 0.209 0 0.4-0.038 0.569-0.113 0.226-0.101 0.49-0.175 0.789-0.221-1.099 0.328-2.168 0.904-2.774 1.909-0.81 1.344-0.618 3.168 0.57 5.421 0.639 1.213 1.602 1.827 2.861 1.827 1.671 0 3.526-1.062 5.164-1.999 1.039-0.594 2.021-1.155 2.524-1.155 0.044 0 0.081 0.006 0.111 0.015 0.889 0.296 4.378 0.4 7.096 0.4 3.865 0 8.759-0.197 10.077-0.754l0.621 0.008c1.67 0.72 8.473 0.757 9.842 0.757 2.641 0 6.04-0.105 6.928-0.401 0.03-0.009 0.068-0.015 0.112-0.015 0.503 0 1.484 0.562 2.524 1.157 1.637 0.936 3.491 1.998 5.163 1.998l0 0c1.259 0 2.222-0.615 2.86-1.828 1.189-2.253 1.38-4.077 0.569-5.421-0.604-1.004-1.674-1.58-2.772-1.909 0.299 0.047 0.562 0.121 0.789 0.221 0.169 0.076 0.36 0.113 0.568 0.113 1.097 0 2.602-1.04 4.192-2.141 1.323-0.914 2.688-1.858 3.412-1.858 1.593 0 7.616-1.579 8.024-9.308 0.055-1.048-0.314-1.994-1.094-2.817C89 66.626 79.175 66.249 75.104 66.249c-3.023 0-5.904 0.2-7.341 0.51-1.112 0.239-1.886 0.396-2.481 0.396-1.406 0-1.819-0.88-3.539-5.037l-0.46-1.108c-2.152-5.166-0.188-10.638 0.71-12.666C62.665 50.404 64.341 55.646 65.216 59.285z" fill="#ffffff" data-fill-palette-color="accent"></path></g></svg></g></svg></g></svg></g></svg></g></svg></g><g></g></svg></g><defs></defs></svg><rect width="300.0128525101373" height="54.041199999999996" fill="none" stroke="none" visibility="hidden"></rect></g></svg></g></svg>